<?xml version="1.0" standalone="no"?>
<!DOCTYPE svg PUBLIC "-//W3C//DTD SVG 20010904//EN"
 "http://www.w3.org/TR/2001/REC-SVG-20010904/DTD/svg10.dtd">
<svg version="1.0" xmlns="http://www.w3.org/2000/svg"
 width="300.000000pt" height="143.000000pt" viewBox="0 0 300.000000 143.000000"
 preserveAspectRatio="xMidYMid meet">
<metadata>
Created by potrace 1.10, written by Peter Selinger 2001-2011
</metadata>
<g transform="translate(0.000000,143.000000) scale(0.100000,-0.100000)"
fill="#cac58f" stroke="none">
<path d="M263 1418 c-4 -7 302 -13 670 -13 59 0 107 -1 107 -3 0 -1 -149 -300
-331 -665 l-332 -662 -54 60 c-30 33 -80 98 -110 143 -89 133 -130 239 -189
487 -7 27 -8 28 -12 7 -9 -56 69 -303 131 -414 53 -94 115 -179 181 -248 32
-33 60 -60 61 -58 2 2 87 171 189 376 l186 372 80 0 c44 0 80 -2 80 -5 0 -2
-58 -86 -128 -187 -149 -213 -146 -208 -133 -208 5 0 72 90 148 200 l138 199
58 1 c51 0 58 -2 53 -17 -14 -49 -67 -356 -63 -371 3 -14 5 -14 10 -2 13 36
117 632 111 641 -3 6 -44 -44 -90 -110 l-84 -120 -85 -3 c-47 -2 -85 -2 -85 0
0 1 67 137 150 302 l150 300 -401 2 c-221 2 -403 0 -406 -4z m822 -479 c-8
-41 -17 -84 -20 -96 -4 -17 -13 -22 -55 -25 -27 -1 -49 -1 -48 2 9 17 133 198
135 196 2 -1 -4 -36 -12 -77z"/>
<path d="M2244 1412 l-452 -2 -396 -701 c-218 -385 -396 -702 -396 -704 0 -26
47 51 240 394 l225 399 90 4 c50 1 92 2 94 0 3 -1 -13 -21 -35 -45 -95 -99
-295 -338 -292 -348 2 -5 82 81 178 193 l175 203 63 3 c34 2 62 -1 62 -6 0 -4
-22 -92 -48 -196 -27 -103 -45 -189 -41 -192 10 -6 11 1 100 350 38 153 68
283 67 288 -2 6 -51 -44 -108 -111 l-105 -121 -93 0 c-51 0 -91 3 -89 8 3 4
73 129 157 277 84 149 157 276 163 283 8 10 106 12 451 12 374 -1 467 2 444
13 -1 1 -206 1 -454 -1z m-412 -494 l-25 -98 -59 0 -58 0 82 99 c46 54 84 98
85 97 0 0 -10 -45 -25 -98z"/>
<path d="M1195 1029 c-3 -19 -30 -164 -59 -324 -30 -159 -51 -293 -47 -297 8
-9 394 628 389 643 -2 6 -86 -125 -187 -292 -138 -228 -182 -294 -176 -264 68
353 101 552 95 559 -5 5 -11 -7 -15 -25z"/>
<path d="M1975 1038 c-42 -175 -142 -634 -139 -638 10 -10 20 24 54 179 34
159 35 162 77 203 23 23 44 40 47 37 2 -2 28 -91 58 -198 30 -107 59 -196 65
-198 5 -2 -17 92 -50 208 l-59 211 108 109 c60 60 104 109 99 109 -5 0 -77
-66 -159 -147 -82 -82 -146 -140 -142 -129 3 10 18 68 31 130 14 61 28 119 31
129 3 9 1 17 -5 17 -6 0 -13 -10 -16 -22z"/>
<path d="M2347 1053 c-10 -16 -139 -634 -134 -639 9 -9 307 8 307 18 0 5 -62
6 -147 2 -141 -7 -146 -6 -141 12 2 10 20 92 39 182 l34 162 52 0 c32 0 53 4
53 11 0 7 -18 10 -50 7 -28 -1 -50 -2 -50 0 0 5 42 198 46 215 5 15 19 17 120
17 69 0 114 4 114 10 0 12 -236 14 -243 3z"/>
<path d="M2680 1030 c0 -12 -25 -154 -55 -317 -49 -257 -57 -320 -41 -302 2 2
17 81 35 174 17 94 34 182 37 197 4 20 15 30 47 41 23 8 49 18 58 21 13 6 18
-2 23 -45 8 -61 93 -360 106 -373 20 -20 18 2 -5 65 -38 105 -99 363 -87 367
55 18 174 86 188 107 16 24 16 27 0 44 -22 24 -115 41 -224 41 -76 0 -82 -2
-82 -20z m249 -14 c66 -16 62 -40 -14 -82 -52 -30 -229 -104 -246 -104 -3 0 3
46 14 103 l20 102 90 -4 c49 -1 110 -8 136 -15z"/>
</g>
</svg>
